<svg xmlns="http://www.w3.org/2000/svg" width="60" height="60" viewBox="0 0 60 60">
  <g id="Group_8" data-name="Group 8" transform="translate(29 6.5)">
    <g id="bx-spray-can" transform="translate(-13 8.5)">
      <path id="Shape" d="M1.559,31A1.552,1.552,0,0,1,0,29.45V17.161c0-.037,0-.074,0-.112,0-.005,0-.012,0-.018V15.5A9.29,9.29,0,0,1,4.67,7.458V1.55A1.553,1.553,0,0,1,6.225,0h6.223A1.553,1.553,0,0,1,14,1.55V7.458A9.292,9.292,0,0,1,18.67,15.5V29.45A1.55,1.55,0,0,1,17.114,31Zm23.33-17.05v-3.1H28v3.1Zm0-4.65V6.2H28V9.3Zm-4.667,0V6.2h3.111V9.3ZM24.889,4.65V1.55H28v3.1Zm-4.667,0V1.55h3.111v3.1Zm-4.662,0V1.55h3.111v3.1Z" transform="translate(0)" fill="#0095e4"/>
    </g>
    <circle id="Ellipse_2" data-name="Ellipse 2" cx="30" cy="30" r="30" transform="translate(-29 -6.5)" fill="rgba(0,0,0,0.06)"/>
  </g>
</svg>
