<svg xmlns="http://www.w3.org/2000/svg" width="60" height="60" viewBox="0 0 60 60">
  <g id="Group_11" data-name="Group 11" transform="translate(176 16.5)">
    <g id="bx-water" transform="translate(-162 1.5)">
      <path id="Shape" d="M28.53,20.875c-.81-.8-1.208-1.161-2.137-1.161s-1.327.356-2.137,1.161a5.761,5.761,0,0,1-8.937,0c-.808-.8-1.206-1.161-2.131-1.161s-1.323.356-2.132,1.161A5.88,5.88,0,0,1,6.593,23,5.88,5.88,0,0,1,2.13,20.875c-.809-.8-1.205-1.161-2.13-1.161V16.429a5.884,5.884,0,0,1,4.463,2.124c.808.806,1.2,1.162,2.13,1.162s1.321-.356,2.13-1.162a5.755,5.755,0,0,1,8.93,0c.808.806,1.2,1.162,2.132,1.162s1.327-.356,2.138-1.164a5.767,5.767,0,0,1,8.94,0c.811.806,1.208,1.162,2.138,1.162V23A5.9,5.9,0,0,1,28.53,20.875Zm0-8.214c-.81-.8-1.208-1.161-2.137-1.161s-1.327.356-2.137,1.161a5.761,5.761,0,0,1-8.937,0c-.808-.8-1.206-1.161-2.131-1.161s-1.323.356-2.132,1.161a5.88,5.88,0,0,1-4.463,2.125A5.88,5.88,0,0,1,2.13,12.661C1.321,11.857.925,11.5,0,11.5V8.214a5.884,5.884,0,0,1,4.463,2.124c.808.806,1.2,1.162,2.13,1.162s1.321-.356,2.13-1.162a5.755,5.755,0,0,1,8.93,0c.808.806,1.2,1.162,2.132,1.162s1.327-.356,2.138-1.164a5.767,5.767,0,0,1,8.94,0c.811.806,1.208,1.162,2.138,1.162v3.286A5.9,5.9,0,0,1,28.53,12.661Zm0-8.214c-.81-.8-1.208-1.161-2.137-1.161s-1.327.356-2.137,1.161a5.9,5.9,0,0,1-4.471,2.125A5.885,5.885,0,0,1,15.32,4.447c-.808-.8-1.206-1.161-2.131-1.161s-1.323.356-2.132,1.161A5.88,5.88,0,0,1,6.593,6.572,5.88,5.88,0,0,1,2.13,4.447C1.321,3.642.925,3.286,0,3.286V0A5.884,5.884,0,0,1,4.463,2.124c.808.806,1.2,1.162,2.13,1.162s1.321-.356,2.13-1.162a5.755,5.755,0,0,1,8.93,0c.808.806,1.2,1.162,2.132,1.162s1.327-.356,2.138-1.164a5.767,5.767,0,0,1,8.94,0c.811.806,1.208,1.162,2.138,1.162V6.572A5.9,5.9,0,0,1,28.53,4.447Z" fill="#0095e4"/>
    </g>
    <circle id="Ellipse_5" data-name="Ellipse 5" cx="30" cy="30" r="30" transform="translate(-176 -16.5)" fill="rgba(0,0,0,0.06)"/>
  </g>
</svg>
