<svg height="62" viewBox="0 0 62 62" width="62" xmlns="http://www.w3.org/2000/svg" xmlns:xlink="http://www.w3.org/1999/xlink"><filter id="a" filterUnits="userSpaceOnUse" height="62" width="62" x="0" y="0"><feOffset dy="2"/><feGaussianBlur result="blur" stdDeviation="2"/><feFlood flood-opacity=".204"/><feComposite in2="blur" operator="in"/><feComposite in="SourceGraphic"/></filter><g filter="url(#a)"><circle cx="25" cy="25" fill="#0095e4" r="25" transform="translate(6 4)"/></g><g fill="#f5f5f5"><path d="m.184 1.542c3.431 2.945 9.452 8.125 11.221 9.74a1.036 1.036 0 0 0 1.512 0c1.771-1.617 7.792-6.8 11.223-9.742a.532.532 0 0 0 .073-.728 2.059 2.059 0 0 0 -1.634-.812h-20.833a2.059 2.059 0 0 0 -1.635.813.532.532 0 0 0 .073.729z" transform="translate(19.338 19)"/><path d="m8.177.049a.513.513 0 0 0 -.555.076c-2.247 1.931-5.208 4.481-7.441 6.427a.532.532 0 0 0 .019.812c2.075 1.684 5.2 4 7.459 5.646a.514.514 0 0 0 .542.041.528.528 0 0 0 .283-.47v-12.053a.528.528 0 0 0 -.307-.479z" transform="translate(35.521 22.088)"/><path d="m.825 13.01c2.258-1.646 5.385-3.962 7.46-5.646a.532.532 0 0 0 .015-.812c-2.234-1.947-5.2-4.497-7.442-6.427a.516.516 0 0 0 -.558-.076.528.528 0 0 0 -.3.479v12.053a.528.528 0 0 0 .283.47.514.514 0 0 0 .542-.041z" transform="translate(19 22.089)"/><path d="m23.941 6.618c-2.18-1.581-6.2-4.528-8.595-6.5a.517.517 0 0 0 -.67.012c-.47.416-.864.766-1.143 1.021a2.089 2.089 0 0 1 -2.907 0c-.279-.251-.673-.606-1.144-1.021a.514.514 0 0 0 -.67-.012c-2.389 1.966-6.412 4.916-8.594 6.5a.532.532 0 0 0 -.078.789 2.074 2.074 0 0 0 1.523.677h20.837a2.077 2.077 0 0 0 1.523-.677.532.532 0 0 0 -.078-.789z" transform="translate(19.421 29.916)"/></g></svg>