<svg height="62" viewBox="0 0 62 62" width="62" xmlns="http://www.w3.org/2000/svg" xmlns:xlink="http://www.w3.org/1999/xlink"><filter id="a" filterUnits="userSpaceOnUse" height="62" width="62" x="0" y="0"><feOffset dy="2"/><feGaussianBlur result="blur" stdDeviation="2"/><feFlood flood-opacity=".204"/><feComposite in2="blur" operator="in"/><feComposite in="SourceGraphic"/></filter><g filter="url(#a)"><circle cx="25" cy="25" fill="#0095e4" r="25" transform="translate(6 4)"/></g><path d="m21.338 0h-17.676a3.666 3.666 0 0 0 -3.662 3.662v17.676a3.666 3.666 0 0 0 3.662 3.662h17.676a3.666 3.666 0 0 0 3.662-3.662v-17.676a3.666 3.666 0 0 0 -3.662-3.662zm-12.5 19.824h-2.93v-10.254h2.93zm0-11.719h-2.93v-2.929h2.93zm10.254 11.719h-2.93v-5.859a1.465 1.465 0 0 0 -2.93 0v5.859h-2.932v-10.254h2.93v.552a6.351 6.351 0 0 1 2.2-.552 3.834 3.834 0 0 1 3.662 3.891z" fill="#f5f5f5" transform="translate(19 16)"/></svg>