<svg height="62" viewBox="0 0 62 62" width="62" xmlns="http://www.w3.org/2000/svg" xmlns:xlink="http://www.w3.org/1999/xlink"><filter id="a" filterUnits="userSpaceOnUse" height="62" width="62" x="0" y="0"><feOffset dy="2"/><feGaussianBlur result="blur" stdDeviation="2"/><feFlood flood-opacity=".204"/><feComposite in2="blur" operator="in"/><feComposite in="SourceGraphic"/></filter><g filter="url(#a)"><circle cx="25" cy="25" fill="#0095e4" r="25" transform="translate(6 4)"/></g><path d="m22.994 16.41a14.194 14.194 0 0 1 -4.458-.71 2.037 2.037 0 0 0 -1.982.418l-2.811 2.122a15.535 15.535 0 0 1 -6.984-6.983l2.06-2.738a2.021 2.021 0 0 0 .5-2.047 14.216 14.216 0 0 1 -.719-4.466 2.008 2.008 0 0 0 -2-2.006h-4.594a2.008 2.008 0 0 0 -2.006 2.006 23.02 23.02 0 0 0 22.994 22.994 2.008 2.008 0 0 0 2.006-2.006v-4.578a2.008 2.008 0 0 0 -2.006-2.006z" fill="#f5f5f5" transform="translate(19 17)"/></svg>